<?xml version="1.0" encoding="UTF-8"?><svg id="Réteg_2" xmlns="http://www.w3.org/2000/svg" viewBox="0 0 45.83 46.31"><defs><style>.cls-1{fill:none;stroke:#fff;stroke-miterlimit:10;stroke-width:2px;}</style></defs><g id="Réteg_2-2"><g id="icons"><g><polyline class="cls-1" points="10.75 .71 13.7 3.66 17.63 3.66 21.56 5.62 24.51 5.62 26.47 7.59 30.41 4.64 34.34 4.64 38.27 2.67 40.23 .71"/><path class="cls-1" d="m26.47,7.59c0,3.14,1.28,19.49,9.83,31.45"/><path class="cls-1" d="m30.57,28c-2.55,1.91-3.08,7.09-2.13,9.07,2.04,4.34,6.63,5.29,10.81,7.86,3.79-6.2,2.34-14.01-5.9-16.71"/><path class="cls-1" d="m13.7,30.58c5.73-2.77,12.4-7.7,13.38-16.75"/><path class="cls-1" d="m23.74,22.7c2.08,2.67,1.59,8.58-1.86,12.15-4.32,4.47-15.71,6.12-20.89,6.29,0-7.13,2.01-23.13,21.55-21.76"/><path class="cls-1" d="m34.34,21.35c-2.81-1.63-2.95-5.9-2.95-5.9,0,0,4.07-1.63,6.88,0,2.81,1.63,5.9,6.88,5.9,6.88,0,0-7.02.65-9.83-.98Z"/></g></g></g></svg>