
  <svg
    xmlns="http://www.w3.org/2000/svg"
    viewBox="0 0 76.914 60.562"
  >
    <path
      d="M66.613 17.72v-.001c-15.55-15.55-40.762-15.55-56.312 0a8.91 8.91 0 000
        12.6l21.38 21.38a9.583 9.583 0 0013.552 0l21.38-21.38a8.91 8.91 0 000-12.6"
      fill="#fff"
    />
    <path
      d="M63.56 29.457l-16.41 16.41-3.022 3.021a8.136 8.136 0
        01-11.671-.169l-2.693-2.854-16.409-16.408a5.708 5.708 0
        01-1.672-4.395c.082-1.45.753-2.805 1.782-3.832l.218-.218a5.745 5.745 0 018.117
        0l12.555 12.555a5.801 5.801 0 008.204 0l12.555-12.555a5.708 5.708 0
        014.394-1.672c1.45.082 2.804.752 3.831 1.78l.113.112c1.027 1.027 1.697 2.382 1.78
        3.832a5.709 5.709 0 01-1.672 4.393M38.457 9.29a9.513 9.513 0 110 19.026 9.513 9.513
        0 010-19.026m35.196 5.288C54.214-4.86 22.7-4.86 3.262 14.578c-4.35 4.349-4.35 11.4 0
        15.75l26.725 26.725c4.678 4.678 12.262 4.678 16.94 0L73.653 30.33c4.349-4.35
        4.349-11.401 0-15.75"
      fill="#ff1438"
    />
  </svg>
