<?xml version="1.0" encoding="UTF-8"?><svg id="Réteg_2" xmlns="http://www.w3.org/2000/svg" viewBox="0 0 519.96 505.58"><defs><style>.cls-1{fill:#414042;}</style></defs><g id="Réteg_2-2"><g id="Layer_1"><g><path class="cls-1" d="m187.2,505.58c-51,0-98.03-18.03-132.42-50.78C19.42,421.13-.03,373.94,0,321.92c.03-42.97,17.7-92.41,54.01-151.14,30.74-49.71,69.2-97.26,103.14-139.22,7.91-9.79,15.39-19.03,22.43-27.89,1.84-2.32,4.65-3.67,7.61-3.67s5.77,1.35,7.61,3.67c7.04,8.86,14.52,18.1,22.44,27.89,33.93,41.95,72.39,89.5,103.14,139.22,36.32,58.73,53.99,108.16,54.01,151.14.03,52.02-19.42,99.21-54.78,132.88-34.39,32.75-81.42,50.78-132.42,50.78h0Zm0-480.29c-4.8,5.97-9.77,12.12-14.93,18.5C107.8,123.5,19.5,232.67,19.44,321.93c-.03,46.64,17.28,88.83,48.74,118.79,30.76,29.29,73.02,45.42,119.01,45.42s88.25-16.13,119.01-45.42c31.46-29.96,48.77-72.15,48.74-118.79-.06-89.26-88.35-198.43-152.82-278.14-5.16-6.38-10.13-12.53-14.93-18.5h0Z"/><path class="cls-1" d="m187.2,449.22c-69.86,0-126.69-56.83-126.69-126.69,0-5.37,4.35-9.72,9.72-9.72s9.72,4.35,9.72,9.72c0,59.13,48.11,107.24,107.24,107.24,5.37,0,9.72,4.35,9.72,9.72s-4.35,9.72-9.72,9.72h0Z"/><path class="cls-1" d="m392.15,424.26c-17.92,0-35.08-3.22-51-9.58-4.99-1.99-7.41-7.65-5.42-12.63,1.99-4.99,7.65-7.41,12.63-5.42,13.61,5.44,28.35,8.19,43.79,8.19,29.76,0,57.09-10.42,76.95-29.33,20.28-19.32,31.45-46.55,31.43-76.69-.04-58.25-58.38-130.38-100.97-183.04-2.53-3.13-5-6.18-7.41-9.17-2.4,2.98-4.87,6.03-7.41,9.17-18.68,23.1-39.86,49.29-58.02,76.37-2.99,4.46-9.03,5.65-13.49,2.66-4.46-2.99-5.65-9.03-2.66-13.49,18.65-27.8,40.11-54.35,59.05-77.77,5.26-6.51,10.23-12.65,14.91-18.54,1.84-2.32,4.65-3.67,7.61-3.67s5.77,1.35,7.61,3.67c4.68,5.89,9.65,12.03,14.91,18.54,22.64,27.99,48.3,59.72,68.87,92.98,24.5,39.61,36.41,73.06,36.43,102.28.02,35.52-13.28,67.76-37.46,90.78-23.49,22.37-55.58,34.69-90.36,34.69h.01Z"/></g></g></g></svg>